<svg xmlns="http://www.w3.org/2000/svg" width="200" height="200" viewBox="0 0 200 200"><circle cx="44" cy="44" r="22" fill="#2B2D42"/><circle cx="156" cy="44" r="22" fill="#2B2D42"/><circle cx="100" cy="100" r="81" fill="#E7D9C7"/><circle cx="100" cy="100" r="78" fill="#FBFAF7"/><circle cx="69" cy="62" r="12.5" fill="#FFFFFF" fill-opacity="0.9"/><ellipse cx="78" cy="92" rx="18" ry="21" fill="#2B2D42" transform="rotate(-18 78 92)"/><ellipse cx="122" cy="92" rx="18" ry="21" fill="#2B2D42" transform="rotate(18 122 92)"/><ellipse cx="60" cy="118" rx="10" ry="6" fill="#FFB3C1"/><ellipse cx="140" cy="118" rx="10" ry="6" fill="#FFB3C1"/><path d="M67 96q11.5-15 23 0M110 96q11.5-15 23 0" fill="none" stroke="#FFFFFF" stroke-width="8.6" stroke-linecap="round"/><path d="M77 114H123Q123 142 100 142Q77 142 77 114Z" fill="#2B2D42"/><ellipse cx="100" cy="134" rx="11" ry="6" fill="#FF9A8A"/></svg>