<svg xmlns="http://www.w3.org/2000/svg" width="200" height="200" viewBox="0 0 200 200"><circle cx="100" cy="100" r="78" fill="#6C8CFF"/><circle cx="69" cy="62" r="12.5" fill="#FFFFFF" fill-opacity="0.5"/><ellipse cx="60" cy="118" rx="10" ry="6" fill="#FF9ACB"/><ellipse cx="140" cy="118" rx="10" ry="6" fill="#FF9ACB"/><path d="M67 96q11.5-15 23 0M110 96q11.5-15 23 0" fill="none" stroke="#2B2D42" stroke-width="8.6" stroke-linecap="round"/><path d="M77 114H123Q123 142 100 142Q77 142 77 114Z" fill="#2B2D42"/><ellipse cx="100" cy="134" rx="11" ry="6" fill="#FF9A8A"/><circle cx="100" cy="100" r="94" fill="#DDF4FF" fill-opacity="0.22" stroke="#FFFFFF" stroke-width="6" stroke-opacity="0.95"/><path d="M38 50q24-34 66-40" fill="none" stroke="#FFFFFF" stroke-width="7" stroke-linecap="round" stroke-opacity="0.8"/><path d="M160 156l3.5 8 8 3.5-8 3.5-3.5 8-3.5-8-8-3.5 8-3.5z" fill="#FFD65A"/></svg>